HIERARCHY
ROOT Hips
{
  OFFSET 55.5413 98.0565 5.15584
  CHANNELS 6 Xposition Yposition Zposition Zrotation Xrotation Yrotation
  JOINT spine
  {
    OFFSET 0 8.30104 0.477351
    CHANNELS 3 Zrotation Xrotation Yrotation
    JOINT spine1
    {
      OFFSET 0 10.4565 0
      CHANNELS 3 Zrotation Xrotation Yrotation
      JOINT spine2
      {
        OFFSET 0 10.0192 0
        CHANNELS 3 Zrotation Xrotation Yrotation
        JOINT Neck
        {
          OFFSET 0 25.7235 1.22641
          CHANNELS 3 Zrotation Xrotation Yrotation
          JOINT Head
          {
            OFFSET 0 7.77175 0
            CHANNELS 3 Zrotation Xrotation Yrotation
            End Site
            {
              OFFSET 0 18.812 -6.20394
            }
          }
        }
        JOINT RightShoulder
        {
          OFFSET -4.2188 10.82 -0.587439
          CHANNELS 3 Zrotation Xrotation Yrotation
          JOINT RightArm
          {
            OFFSET 0 14.1914 0
            CHANNELS 3 Zrotation Xrotation Yrotation
            JOINT RightArmRoll
            {
              OFFSET 0 7.16408 0
              CHANNELS 3 Zrotation Xrotation Yrotation
              JOINT RightForeArm
              {
                OFFSET 0 20.8665 0
                CHANNELS 3 Zrotation Xrotation Yrotation
                JOINT RightForeArmRoll
                {
                  OFFSET 0 8.03921 0
                  CHANNELS 3 Zrotation Xrotation Yrotation
                  JOINT RightHand
                  {
                    OFFSET 0 16.133 0
                    CHANNELS 3 Zrotation Xrotation Yrotation
                    End Site
                    {
                      OFFSET 0 0 0
                    }
                  }
                }
              }
            }
          }
        }
        JOINT LeftShoulder
        {
          OFFSET 4.2188 10.82 -0.587439
          CHANNELS 3 Zrotation Xrotation Yrotation
          JOINT LeftArm
          {
            OFFSET 0 14.1914 0
            CHANNELS 3 Zrotation Xrotation Yrotation
            JOINT LeftArmRoll
            {
              OFFSET 0 7.16408 0
              CHANNELS 3 Zrotation Xrotation Yrotation
              JOINT LeftForeArm
              {
                OFFSET 0 20.8665 0
                CHANNELS 3 Zrotation Xrotation Yrotation
                JOINT LeftForeArmRoll
                {
                  OFFSET 0 8.03921 0
                  CHANNELS 3 Zrotation Xrotation Yrotation
                  JOINT LeftHand
                  {
                    OFFSET 0 16.133 0
                    CHANNELS 3 Zrotation Xrotation Yrotation
                    End Site
                    {
                      OFFSET 0 0 0
                    }
                  }
                }
              }
            }
          }
        }
      }
    }
  }
  JOINT RightUpLeg
  {
    OFFSET -7.35773 -1.34921 -1.13182
    CHANNELS 3 Zrotation Xrotation Yrotation
    JOINT RightUpLegRoll
    {
      OFFSET 0 18.9168 0
      CHANNELS 3 Zrotation Xrotation Yrotation
      JOINT RightLeg
      {
        OFFSET 0 -23.4256 0
        CHANNELS 3 Zrotation Xrotation Yrotation
        JOINT RightLegRoll
        {
          OFFSET 0 23.5023 0
          CHANNELS 3 Zrotation Xrotation Yrotation
          JOINT RightFoot
          {
            OFFSET 0 19.5617 0
            CHANNELS 3 Zrotation Xrotation Yrotation
            JOINT RightToeBase
            {
              OFFSET 0 16.3526 0
              CHANNELS 3 Zrotation Xrotation Yrotation
              End Site
              {
                OFFSET 0.00693125 7.91943 -0.912837
              }
            }
          }
        }
      }
    }
  }
  JOINT LeftUpLeg
  {
    OFFSET 7.35773 -1.34921 -1.13182
    CHANNELS 3 Zrotation Xrotation Yrotation
    JOINT LeftUpLegRoll
    {
      OFFSET 0 18.9169 0
      CHANNELS 3 Zrotation Xrotation Yrotation
      JOINT LeftLeg
      {
        OFFSET 0 23.4255 0
        CHANNELS 3 Zrotation Xrotation Yrotation
        JOINT LeftLegRoll
        {
          OFFSET 0 23.7195 0
          CHANNELS 3 Zrotation Xrotation Yrotation
          JOINT LeftFoot
          {
            OFFSET 0 19.3444 0
            CHANNELS 3 Zrotation Xrotation Yrotation
            JOINT LeftToeBase
            {
              OFFSET 0 16.3526 0
              CHANNELS 3 Zrotation Xrotation Yrotation
              End Site
              {
                OFFSET -0.0310629 7.91944 -0.912836
              }
            }
          }
        }
      }
    }
  }
}
MOTION
Frames: 5
Frame Time: 0.00208333
50.3363 98.616 6.81493 2.94527 -2.55041 79.9256 -0.560336 -2.44144 0.731883 -1.08386 -0.887352 1.51875 -1.10224 0.757307 1.53694 1.7882 19.014 -7.30003 5.94009 -2.35777 -6.02919 51.7528 -4.6867 -2.40728 -32.8659 80.3672 151.11 8.89729e-006 -1.90117e-006 -5.48927e-006 -24.5149 48.7603 22.1501 -1.49026e-006 -3.81256e-006 -3.0053 8.02935 -4.95107 0.697348 -64.9843 -3.35458 2.58634 -97.0088 25.978 28.1742 -4.84431e-007 5.35725e-007 3.23249e-006 -22.7131 75.8218 20.4511 1.02058e-005 -2.38138e-006 3.00001 -8.02885 -4.95143 -0.69751 178.315 -9.20261 5.99525 -180 7.01406e-015 178.425 172.456 24.0905 -179.492 1.92193e-007 -8.29158e-006 0.398402 -17.7688 67.1316 18.8369 9.57925 37.2387 -6.22884 -176.24 9.23098 1.49101 4.54188e-006 -4.6773e-006 -1.01435 -3.59356 -14.8784 0.377644 -8.84859e-007 -1.88842e-007 -0.200366 19.2325 68.6933 -20.1405 -8.1365 25.2327 3.48773 
50.3836 98.6384 6.81986 2.98565 -2.53674 80.0388 -0.561195 -2.43005 0.729756 -1.08646 -0.864563 1.51432 -1.10479 0.780097 1.53257 1.40596 19.0857 -7.22079 6.2492 -2.43176 -6.02852 51.0273 -4.72117 -2.38119 -33.5192 81.0226 151.293 8.89729e-006 -1.90117e-006 -5.48927e-006 -23.4205 47.1542 20.8376 -1.49026e-006 -3.81256e-006 -3.0053 8.02935 -4.95107 0.697348 -65.0985 -3.43208 2.63784 -97.0102 25.9099 28.179 -4.84431e-007 5.35725e-007 3.23249e-006 -22.6565 75.8589 20.4183 1.02058e-005 -2.38138e-006 3.00001 -8.02885 -4.95143 -0.69751 178.253 -9.19261 6.05461 -180 7.01404e-015 178.419 172.454 24.2285 -179.49 1.92193e-007 -8.29158e-006 0.401997 -17.7556 67.1174 18.8252 9.55179 37.1413 -6.15964 -176.266 9.14948 1.51358 4.54188e-006 -4.6773e-006 -1.01517 -3.58834 -14.8236 0.379381 -8.84859e-007 -1.88842e-007 -0.199974 19.2485 68.7114 -20.1565 -8.1365 25.2327 3.48773 
50.4682 98.6568 6.88182 3.02569 -2.52421 80.1479 -0.561564 -2.41857 0.727444 -1.08822 -0.841606 1.50941 -1.10649 0.803056 1.5277 1.03182 19.1521 -7.1403 6.5477 -2.50077 -6.0258 50.2754 -4.75957 -2.35606 -33.8863 81.7126 151.118 8.89729e-006 -1.90117e-006 -5.48927e-006 -22.3139 45.5693 19.5034 -1.49026e-006 -3.81256e-006 -3.0053 8.02935 -4.95107 0.697348 -65.2062 -3.51019 2.68888 -97.0191 25.8357 28.177 -4.84431e-007 5.35725e-007 3.23249e-006 -22.5929 75.8928 20.3788 1.02058e-005 -2.38138e-006 3.00001 -8.02885 -4.95143 -0.69751 178.191 -9.18047 6.11373 -180 7.01402e-015 178.414 172.454 24.3691 -179.488 1.92193e-007 -8.29158e-006 0.405654 -17.7426 67.1032 18.8136 9.52329 37.0393 -6.08718 -176.29 9.06755 1.53541 4.54188e-006 -4.6773e-006 -1.01603 -3.58289 -14.7687 0.38119 -8.84859e-007 -1.88842e-007 -0.199618 19.2646 68.7295 -20.1725 -8.1365 25.2327 3.48773 
50.4955 98.6738 6.86892 3.06526 -2.51295 80.2533 -0.56149 -2.40698 0.725048 -1.08921 -0.818402 1.50425 -1.10741 0.826262 1.52256 0.664327 19.2122 -7.05884 6.8376 -2.56423 -6.02153 49.5042 -4.80031 -2.33106 -33.9421 82.4286 150.571 8.89729e-006 -1.90117e-006 -5.48927e-006 -21.2132 44.0051 18.1663 -1.49026e-006 -3.81256e-006 -3.0053 8.02935 -4.95107 0.697348 -65.3088 -3.58861 2.73942 -97.0334 25.7568 28.1692 -4.84431e-007 5.35725e-007 3.23249e-006 -22.5246 75.924 20.3348 1.02058e-005 -2.38138e-006 3.00001 -8.02885 -4.95143 -0.69751 178.128 -9.16632 6.17242 -180 7.014e-015 178.408 172.454 24.5117 -179.487 1.92193e-007 -8.29158e-006 0.409356 -17.7297 67.0891 18.802 9.49394 36.9324 -6.01216 -176.313 8.98551 1.55642 4.54188e-006 -4.6773e-006 -1.01693 -3.57721 -14.7141 0.383062 -8.84859e-007 -1.88842e-007 -0.199292 19.2807 68.7476 -20.1884 -8.1365 25.2327 3.48773 
50.5439 98.6849 6.88556 3.10417 -2.50311 80.3554 -0.561022 -2.39522 0.722668 -1.08947 -0.794874 1.49904 -1.10762 0.849792 1.51737 0.301996 19.265 -6.97671 7.12092 -2.62155 -6.01618 48.7206 -4.8418 -2.30533 -33.6491 83.1611 149.623 8.89729e-006 -1.90117e-006 -5.48927e-006 -20.1331 42.4628 16.8427 -1.49026e-006 -3.81256e-006 -3.0053 8.02935 -4.95107 0.697348 -65.4077 -3.66702 2.7894 -97.0511 25.6745 28.1565 -4.84431e-007 5.35725e-007 3.23249e-006 -22.454 75.9526 20.2881 1.02058e-005 -2.38138e-006 3.00001 -8.02885 -4.95143 -0.69751 178.066 -9.15024 6.23044 -180 7.01398e-015 178.403 172.455 24.656 -179.485 1.92193e-007 -8.29158e-006 0.413088 -17.7169 67.0752 18.7906 9.46395 36.8208 -5.93531 -176.334 8.90363 1.57649 4.54188e-006 -4.6773e-006 -1.01786 -3.57129 -14.6597 0.384989 -8.84859e-007 -1.88842e-007 -0.198989 19.2966 68.7655 -20.2042 -8.1365 25.2327 3.48773 
